<?xml version="1.0" encoding="UTF-8" ?>
<!DOCTYPE svg PUBLIC "-//W3C//DTD SVG 1.1//EN" "http://www.w3.org/Graphics/SVG/1.1/DTD/svg11.dtd">
<svg width="131pt" height="96pt" viewBox="0 0 131 96" version="1.1" xmlns="http://www.w3.org/2000/svg">
<g id="#0e7a5fff">
<path fill="#ff0000" opacity="1.00" d=" M 8.09 0.00 L 9.50 0.00 C 17.44 2.91 26.01 2.51 34.29 3.55 C 43.86 4.03 53.40 5.31 63.00 5.00 C 76.70 5.34 90.35 3.99 104.00 3.01 C 108.70 2.78 113.32 1.73 117.69 0.00 L 119.70 0.00 C 122.38 0.94 125.19 1.80 127.50 3.51 C 129.72 5.51 130.30 8.60 131.00 11.36 L 131.00 13.90 C 128.61 16.39 125.99 18.64 123.18 20.65 C 123.51 29.55 126.62 38.06 127.25 46.95 C 128.71 55.40 127.49 64.04 125.35 72.27 C 124.28 76.70 120.33 79.46 118.23 83.31 C 117.90 87.60 119.22 91.84 120.14 96.00 L 112.44 96.00 C 108.50 94.01 104.81 90.50 100.07 91.06 C 93.65 91.60 87.37 93.16 81.02 94.15 C 72.42 95.71 63.66 94.77 54.98 95.08 C 47.92 95.33 41.03 93.56 34.31 91.59 C 32.25 91.16 30.03 90.08 27.96 91.01 C 24.14 92.70 20.58 95.01 16.47 96.00 L 9.58 96.00 C 9.95 91.05 11.48 86.25 11.76 81.31 C 9.04 76.62 4.48 72.77 3.80 67.09 C 2.09 56.31 2.83 45.27 4.42 34.52 C 5.11 29.41 7.16 24.65 8.63 19.75 C 5.40 17.51 2.03 15.22 0.00 11.76 L 0.00 5.98 C 2.49 3.73 5.13 1.61 8.09 0.00 Z" />
</g>
</svg>
